<svg width="31" height="31" viewBox="0 0 31 31" fill="none" xmlns="http://www.w3.org/2000/svg">
<path d="M15.5 0.46875C7.21186 0.46875 0.46875 7.21186 0.46875 15.5C0.46875 23.7881 7.21186 30.5312 15.5 30.5312C23.7881 30.5312 30.5312 23.7881 30.5312 15.5C30.5312 7.21186 23.7881 0.46875 15.5 0.46875ZM23.3228 10.4624L13.6103 22.0249C13.5037 22.1518 13.3711 22.2543 13.2215 22.3255C13.0719 22.3967 12.9087 22.4349 12.7431 22.4375H12.7236C12.5615 22.4374 12.4012 22.4033 12.2532 22.3373C12.1052 22.2713 11.9727 22.175 11.8643 22.0545L7.70182 17.4295C7.5961 17.3174 7.51387 17.1852 7.45995 17.0409C7.40603 16.8965 7.38151 16.7429 7.38783 16.5889C7.39415 16.4349 7.43118 16.2838 7.49675 16.1443C7.56232 16.0049 7.65511 15.8799 7.76965 15.7768C7.8842 15.6737 8.0182 15.5946 8.16377 15.5441C8.30934 15.4935 8.46354 15.4725 8.61732 15.4824C8.77111 15.4923 8.92136 15.5329 9.05925 15.6017C9.19715 15.6704 9.3199 15.7661 9.42029 15.883L12.6932 19.5194L21.5522 8.97514C21.751 8.74539 22.0321 8.60307 22.3349 8.57894C22.6377 8.55481 22.9379 8.65081 23.1705 8.84619C23.403 9.04157 23.5494 9.32063 23.5779 9.62306C23.6064 9.92548 23.5148 10.227 23.3228 10.4624Z" fill="#535353"/>
</svg>
